<svg xmlns="http://www.w3.org/2000/svg" width="960" height="300" viewBox="0 0 960 300" role="img" aria-labelledby="title desc">
  <title id="title">AZM build outputs</title>
  <desc id="desc">AZM reads source and writes Intel HEX and source map output.</desc>
  <defs>
    <marker id="arrow" viewBox="0 0 10 10" refX="9" refY="5" markerWidth="8" markerHeight="8" orient="auto-start-reverse">
      <path d="M 0 0 L 10 5 L 0 10 z" fill="#3b5568"/>
    </marker>
    <style>
      .box { fill: #f7fbff; stroke: #2f5d7c; stroke-width: 2; rx: 8; }
      .azm { fill: #eef8ef; stroke: #3d7a44; stroke-width: 2; rx: 8; }
      .artifact { fill: #fff8e8; stroke: #9a6a12; stroke-width: 2; rx: 8; }
      .label { font: 700 22px system-ui, -apple-system, BlinkMacSystemFont, "Segoe UI", sans-serif; fill: #17212b; }
      .body { font: 16px system-ui, -apple-system, BlinkMacSystemFont, "Segoe UI", sans-serif; fill: #304050; }
      .arrow { stroke: #3b5568; stroke-width: 2.5; fill: none; marker-end: url(#arrow); }
    </style>
  </defs>
  <rect width="960" height="300" fill="#ffffff"/>
  <rect class="box" x="50" y="95" width="180" height="110"/>
  <text class="label" x="88" y="137">Source</text>
  <text class="body" x="82" y="167">.asm, .z80</text>
  <path class="arrow" d="M 235 150 H 345"/>
  <rect class="azm" x="350" y="95" width="160" height="110"/>
  <text class="label" x="405" y="137">AZM</text>
  <text class="body" x="382" y="167">Assembler</text>
  <path class="arrow" d="M 515 150 H 600"/>
  <rect class="artifact" x="625" y="75" width="240" height="64"/>
  <text class="label" x="665" y="114">main.hex</text>
  <rect class="artifact" x="625" y="161" width="240" height="64"/>
  <text class="label" x="650" y="200">source map</text>
  <path class="arrow" d="M 570 150 C 590 105 600 110 620 107"/>
  <path class="arrow" d="M 570 150 C 590 195 600 190 620 193"/>
</svg>
