<svg xmlns="http://www.w3.org/2000/svg" width="720" height="452" viewBox="0 0 720 452" role="img" aria-labelledby="figTitle figDesc">
  <title id="figTitle">and, or and xor against a mask</title>
  <desc id="figDesc">Three panels, each with the byte before, the mask and the byte after as eight bits, for or with $02, and with $FB, and xor with $04. The changed bit is marked and the carry flag is shown cleared by every one of them.</desc>
  <defs>
    <style>
    :root {
      --ink:    #111417;
      --ink-2:  #454b52;
      --dim:    #8797a5;
      --rule:   #c8ccd0;
      --fill:   #ffffff;
      --fill-2: #eef0f1;
      --sig:    #14607e;
      --sig-bg: #14607e1a;
    }
    @media (prefers-color-scheme: dark) {
      :root {
        --ink:    #e6e8ea;
        --ink-2:  #b3b9bf;
        --dim:    #7d8890;
        --rule:   #3d4348;
        --fill:   #1c1f22;
        --fill-2: #262a2e;
        --sig:    #5fa8c6;
        --sig-bg: #5fa8c626;
      }
    }

    .bx    { fill: var(--fill);   stroke: var(--ink);  stroke-width: 1.5; }
    .bx2   { fill: var(--fill-2); stroke: var(--ink);  stroke-width: 1.5; }
    .bxq   { fill: var(--fill-2); stroke: var(--rule); stroke-width: 1.5; }
    .bxs   { fill: var(--sig-bg); stroke: var(--sig);  stroke-width: 2; }
    .sig   { fill: var(--sig);    stroke: var(--sig);  stroke-width: 1.5; }
    .none  { fill: none;          stroke: var(--ink);  stroke-width: 1.5; }
    .rule  { fill: none; stroke: var(--rule); stroke-width: 1; }
    .dash  { fill: none; stroke: var(--dim);  stroke-width: 1.2; stroke-dasharray: 4 3; }
    .sline { fill: none; stroke: var(--sig);  stroke-width: 2; }

    .t     { font: 13px ui-monospace, SFMono-Regular, Menlo, monospace; fill: var(--ink); }
    .ts    { font: 11px ui-monospace, SFMono-Regular, Menlo, monospace; fill: var(--ink-2); }
    .tb    { font: 600 13px ui-monospace, SFMono-Regular, Menlo, monospace; fill: var(--ink); }
    .n     { font: 13px system-ui, -apple-system, "Segoe UI", sans-serif; fill: var(--ink); }
    .ns    { font: 11px system-ui, -apple-system, "Segoe UI", sans-serif; fill: var(--ink-2); }
    .nb    { font: 600 13px system-ui, -apple-system, "Segoe UI", sans-serif; fill: var(--ink); }
    .dim   { font: 11px ui-monospace, SFMono-Regular, Menlo, monospace; fill: var(--dim); }
    .dimn  { font: 11px system-ui, -apple-system, "Segoe UI", sans-serif; fill: var(--dim); }
    .cap   { font: 600 10px ui-monospace, SFMono-Regular, Menlo, monospace;
             fill: var(--sig); letter-spacing: .12em; }
    .on-sig { fill: var(--sig); }
    .on-dim { fill: var(--dim); }
    .inv   { fill: var(--fill); }
  </style>
    <marker id="ar" viewBox="0 0 10 10" refX="9" refY="5" markerWidth="6" markerHeight="6" orient="auto-start-reverse">
      <path d="M0,0 L10,5 L0,10 z" fill="var(--ink)"/>
    </marker>
    <marker id="arS" viewBox="0 0 10 10" refX="9" refY="5" markerWidth="6" markerHeight="6" orient="auto-start-reverse">
      <path d="M0,0 L10,5 L0,10 z" fill="var(--sig)"/>
    </marker>
    <marker id="arD" viewBox="0 0 10 10" refX="9" refY="5" markerWidth="6" markerHeight="6" orient="auto-start-reverse">
      <path d="M0,0 L10,5 L0,10 z" fill="var(--dim)"/>
    </marker>
  </defs>
  <text class="tb" x="30" y="74" text-anchor="start" xml:space="preserve">or FLAG_ERROR</text>
  <text class="dimn" x="30" y="94" text-anchor="start" xml:space="preserve">$05 to $07</text>
  <text class="dimn" x="30" y="112" text-anchor="start" xml:space="preserve">sets bit 1, leaves the rest</text>
  <rect class="bx" x="250" y="56" width="30" height="24" rx="2"/>
  <text class="t" x="265" y="72.5" text-anchor="middle" xml:space="preserve">0</text>
  <text class="dim" x="265" y="49" text-anchor="middle" xml:space="preserve">7</text>
  <rect class="bx" x="280" y="56" width="30" height="24" rx="2"/>
  <text class="t" x="295" y="72.5" text-anchor="middle" xml:space="preserve">0</text>
  <text class="dim" x="295" y="49" text-anchor="middle" xml:space="preserve">6</text>
  <rect class="bx" x="310" y="56" width="30" height="24" rx="2"/>
  <text class="t" x="325" y="72.5" text-anchor="middle" xml:space="preserve">0</text>
  <text class="dim" x="325" y="49" text-anchor="middle" xml:space="preserve">5</text>
  <rect class="bx" x="340" y="56" width="30" height="24" rx="2"/>
  <text class="t" x="355" y="72.5" text-anchor="middle" xml:space="preserve">0</text>
  <text class="dim" x="355" y="49" text-anchor="middle" xml:space="preserve">4</text>
  <rect class="bx" x="370" y="56" width="30" height="24" rx="2"/>
  <text class="t" x="385" y="72.5" text-anchor="middle" xml:space="preserve">0</text>
  <text class="dim" x="385" y="49" text-anchor="middle" xml:space="preserve">3</text>
  <rect class="bx" x="400" y="56" width="30" height="24" rx="2"/>
  <text class="t" x="415" y="72.5" text-anchor="middle" xml:space="preserve">1</text>
  <text class="dim" x="415" y="49" text-anchor="middle" xml:space="preserve">2</text>
  <rect class="bx" x="430" y="56" width="30" height="24" rx="2"/>
  <text class="t" x="445" y="72.5" text-anchor="middle" xml:space="preserve">0</text>
  <text class="dim" x="445" y="49" text-anchor="middle" xml:space="preserve">1</text>
  <rect class="bx" x="460" y="56" width="30" height="24" rx="2"/>
  <text class="t" x="475" y="72.5" text-anchor="middle" xml:space="preserve">1</text>
  <text class="dim" x="475" y="49" text-anchor="middle" xml:space="preserve">0</text>
  <text class="dim" x="238" y="73" text-anchor="end" xml:space="preserve">before</text>
  <rect class="bx" x="250" y="86" width="30" height="24" rx="2"/>
  <text class="t" x="265" y="102.5" text-anchor="middle" xml:space="preserve">0</text>
  <rect class="bx" x="280" y="86" width="30" height="24" rx="2"/>
  <text class="t" x="295" y="102.5" text-anchor="middle" xml:space="preserve">0</text>
  <rect class="bx" x="310" y="86" width="30" height="24" rx="2"/>
  <text class="t" x="325" y="102.5" text-anchor="middle" xml:space="preserve">0</text>
  <rect class="bx" x="340" y="86" width="30" height="24" rx="2"/>
  <text class="t" x="355" y="102.5" text-anchor="middle" xml:space="preserve">0</text>
  <rect class="bx" x="370" y="86" width="30" height="24" rx="2"/>
  <text class="t" x="385" y="102.5" text-anchor="middle" xml:space="preserve">0</text>
  <rect class="bx" x="400" y="86" width="30" height="24" rx="2"/>
  <text class="t" x="415" y="102.5" text-anchor="middle" xml:space="preserve">0</text>
  <rect class="bx" x="430" y="86" width="30" height="24" rx="2"/>
  <text class="t" x="445" y="102.5" text-anchor="middle" xml:space="preserve">1</text>
  <rect class="bx" x="460" y="86" width="30" height="24" rx="2"/>
  <text class="t" x="475" y="102.5" text-anchor="middle" xml:space="preserve">0</text>
  <text class="dim" x="238" y="103" text-anchor="end" xml:space="preserve">mask</text>
  <line class="rule" x1="250" y1="116" x2="490" y2="116"/>
  <rect class="bx" x="250" y="122" width="30" height="24" rx="2"/>
  <text class="t" x="265" y="138.5" text-anchor="middle" xml:space="preserve">0</text>
  <rect class="bx" x="280" y="122" width="30" height="24" rx="2"/>
  <text class="t" x="295" y="138.5" text-anchor="middle" xml:space="preserve">0</text>
  <rect class="bx" x="310" y="122" width="30" height="24" rx="2"/>
  <text class="t" x="325" y="138.5" text-anchor="middle" xml:space="preserve">0</text>
  <rect class="bx" x="340" y="122" width="30" height="24" rx="2"/>
  <text class="t" x="355" y="138.5" text-anchor="middle" xml:space="preserve">0</text>
  <rect class="bx" x="370" y="122" width="30" height="24" rx="2"/>
  <text class="t" x="385" y="138.5" text-anchor="middle" xml:space="preserve">0</text>
  <rect class="bx" x="400" y="122" width="30" height="24" rx="2"/>
  <text class="t" x="415" y="138.5" text-anchor="middle" xml:space="preserve">1</text>
  <rect class="bxs" x="430" y="122" width="30" height="24" rx="2"/>
  <text class="tb" x="445" y="138.5" text-anchor="middle" xml:space="preserve">1</text>
  <rect class="bx" x="460" y="122" width="30" height="24" rx="2"/>
  <text class="t" x="475" y="138.5" text-anchor="middle" xml:space="preserve">1</text>
  <text class="dim" x="238" y="139" text-anchor="end" xml:space="preserve">after</text>
  <text class="dim" x="521" y="114" text-anchor="middle" xml:space="preserve">C</text>
  <rect class="bxs" x="506" y="122" width="30" height="24" rx="2"/>
  <text class="tb" x="521" y="139" text-anchor="middle" xml:space="preserve">0</text>
  <text class="dimn" x="552" y="139" text-anchor="start" xml:space="preserve">carry is cleared</text>
  <text class="tb" x="30" y="190" text-anchor="start" xml:space="preserve">and $FB</text>
  <text class="dimn" x="30" y="210" text-anchor="start" xml:space="preserve">$07 to $03</text>
  <text class="dimn" x="30" y="228" text-anchor="start" xml:space="preserve">clears bit 2 where the mask is 0</text>
  <rect class="bx" x="250" y="172" width="30" height="24" rx="2"/>
  <text class="t" x="265" y="188.5" text-anchor="middle" xml:space="preserve">0</text>
  <rect class="bx" x="280" y="172" width="30" height="24" rx="2"/>
  <text class="t" x="295" y="188.5" text-anchor="middle" xml:space="preserve">0</text>
  <rect class="bx" x="310" y="172" width="30" height="24" rx="2"/>
  <text class="t" x="325" y="188.5" text-anchor="middle" xml:space="preserve">0</text>
  <rect class="bx" x="340" y="172" width="30" height="24" rx="2"/>
  <text class="t" x="355" y="188.5" text-anchor="middle" xml:space="preserve">0</text>
  <rect class="bx" x="370" y="172" width="30" height="24" rx="2"/>
  <text class="t" x="385" y="188.5" text-anchor="middle" xml:space="preserve">0</text>
  <rect class="bx" x="400" y="172" width="30" height="24" rx="2"/>
  <text class="t" x="415" y="188.5" text-anchor="middle" xml:space="preserve">1</text>
  <rect class="bx" x="430" y="172" width="30" height="24" rx="2"/>
  <text class="t" x="445" y="188.5" text-anchor="middle" xml:space="preserve">1</text>
  <rect class="bx" x="460" y="172" width="30" height="24" rx="2"/>
  <text class="t" x="475" y="188.5" text-anchor="middle" xml:space="preserve">1</text>
  <text class="dim" x="238" y="189" text-anchor="end" xml:space="preserve">before</text>
  <rect class="bx" x="250" y="202" width="30" height="24" rx="2"/>
  <text class="t" x="265" y="218.5" text-anchor="middle" xml:space="preserve">1</text>
  <rect class="bx" x="280" y="202" width="30" height="24" rx="2"/>
  <text class="t" x="295" y="218.5" text-anchor="middle" xml:space="preserve">1</text>
  <rect class="bx" x="310" y="202" width="30" height="24" rx="2"/>
  <text class="t" x="325" y="218.5" text-anchor="middle" xml:space="preserve">1</text>
  <rect class="bx" x="340" y="202" width="30" height="24" rx="2"/>
  <text class="t" x="355" y="218.5" text-anchor="middle" xml:space="preserve">1</text>
  <rect class="bx" x="370" y="202" width="30" height="24" rx="2"/>
  <text class="t" x="385" y="218.5" text-anchor="middle" xml:space="preserve">1</text>
  <rect class="bx" x="400" y="202" width="30" height="24" rx="2"/>
  <text class="t" x="415" y="218.5" text-anchor="middle" xml:space="preserve">0</text>
  <rect class="bx" x="430" y="202" width="30" height="24" rx="2"/>
  <text class="t" x="445" y="218.5" text-anchor="middle" xml:space="preserve">1</text>
  <rect class="bx" x="460" y="202" width="30" height="24" rx="2"/>
  <text class="t" x="475" y="218.5" text-anchor="middle" xml:space="preserve">1</text>
  <text class="dim" x="238" y="219" text-anchor="end" xml:space="preserve">mask</text>
  <line class="rule" x1="250" y1="232" x2="490" y2="232"/>
  <rect class="bx" x="250" y="238" width="30" height="24" rx="2"/>
  <text class="t" x="265" y="254.5" text-anchor="middle" xml:space="preserve">0</text>
  <rect class="bx" x="280" y="238" width="30" height="24" rx="2"/>
  <text class="t" x="295" y="254.5" text-anchor="middle" xml:space="preserve">0</text>
  <rect class="bx" x="310" y="238" width="30" height="24" rx="2"/>
  <text class="t" x="325" y="254.5" text-anchor="middle" xml:space="preserve">0</text>
  <rect class="bx" x="340" y="238" width="30" height="24" rx="2"/>
  <text class="t" x="355" y="254.5" text-anchor="middle" xml:space="preserve">0</text>
  <rect class="bx" x="370" y="238" width="30" height="24" rx="2"/>
  <text class="t" x="385" y="254.5" text-anchor="middle" xml:space="preserve">0</text>
  <rect class="bxs" x="400" y="238" width="30" height="24" rx="2"/>
  <text class="tb" x="415" y="254.5" text-anchor="middle" xml:space="preserve">0</text>
  <rect class="bx" x="430" y="238" width="30" height="24" rx="2"/>
  <text class="t" x="445" y="254.5" text-anchor="middle" xml:space="preserve">1</text>
  <rect class="bx" x="460" y="238" width="30" height="24" rx="2"/>
  <text class="t" x="475" y="254.5" text-anchor="middle" xml:space="preserve">1</text>
  <text class="dim" x="238" y="255" text-anchor="end" xml:space="preserve">after</text>
  <text class="dim" x="521" y="230" text-anchor="middle" xml:space="preserve">C</text>
  <rect class="bxs" x="506" y="238" width="30" height="24" rx="2"/>
  <text class="tb" x="521" y="255" text-anchor="middle" xml:space="preserve">0</text>
  <text class="dimn" x="552" y="255" text-anchor="start" xml:space="preserve">carry is cleared</text>
  <text class="tb" x="30" y="306" text-anchor="start" xml:space="preserve">xor FLAG_BUSY</text>
  <text class="dimn" x="30" y="326" text-anchor="start" xml:space="preserve">$07 to $03</text>
  <text class="dimn" x="30" y="344" text-anchor="start" xml:space="preserve">toggles bit 2, reaching $03 too</text>
  <rect class="bx" x="250" y="288" width="30" height="24" rx="2"/>
  <text class="t" x="265" y="304.5" text-anchor="middle" xml:space="preserve">0</text>
  <rect class="bx" x="280" y="288" width="30" height="24" rx="2"/>
  <text class="t" x="295" y="304.5" text-anchor="middle" xml:space="preserve">0</text>
  <rect class="bx" x="310" y="288" width="30" height="24" rx="2"/>
  <text class="t" x="325" y="304.5" text-anchor="middle" xml:space="preserve">0</text>
  <rect class="bx" x="340" y="288" width="30" height="24" rx="2"/>
  <text class="t" x="355" y="304.5" text-anchor="middle" xml:space="preserve">0</text>
  <rect class="bx" x="370" y="288" width="30" height="24" rx="2"/>
  <text class="t" x="385" y="304.5" text-anchor="middle" xml:space="preserve">0</text>
  <rect class="bx" x="400" y="288" width="30" height="24" rx="2"/>
  <text class="t" x="415" y="304.5" text-anchor="middle" xml:space="preserve">1</text>
  <rect class="bx" x="430" y="288" width="30" height="24" rx="2"/>
  <text class="t" x="445" y="304.5" text-anchor="middle" xml:space="preserve">1</text>
  <rect class="bx" x="460" y="288" width="30" height="24" rx="2"/>
  <text class="t" x="475" y="304.5" text-anchor="middle" xml:space="preserve">1</text>
  <text class="dim" x="238" y="305" text-anchor="end" xml:space="preserve">before</text>
  <rect class="bx" x="250" y="318" width="30" height="24" rx="2"/>
  <text class="t" x="265" y="334.5" text-anchor="middle" xml:space="preserve">0</text>
  <rect class="bx" x="280" y="318" width="30" height="24" rx="2"/>
  <text class="t" x="295" y="334.5" text-anchor="middle" xml:space="preserve">0</text>
  <rect class="bx" x="310" y="318" width="30" height="24" rx="2"/>
  <text class="t" x="325" y="334.5" text-anchor="middle" xml:space="preserve">0</text>
  <rect class="bx" x="340" y="318" width="30" height="24" rx="2"/>
  <text class="t" x="355" y="334.5" text-anchor="middle" xml:space="preserve">0</text>
  <rect class="bx" x="370" y="318" width="30" height="24" rx="2"/>
  <text class="t" x="385" y="334.5" text-anchor="middle" xml:space="preserve">0</text>
  <rect class="bx" x="400" y="318" width="30" height="24" rx="2"/>
  <text class="t" x="415" y="334.5" text-anchor="middle" xml:space="preserve">1</text>
  <rect class="bx" x="430" y="318" width="30" height="24" rx="2"/>
  <text class="t" x="445" y="334.5" text-anchor="middle" xml:space="preserve">0</text>
  <rect class="bx" x="460" y="318" width="30" height="24" rx="2"/>
  <text class="t" x="475" y="334.5" text-anchor="middle" xml:space="preserve">0</text>
  <text class="dim" x="238" y="335" text-anchor="end" xml:space="preserve">mask</text>
  <line class="rule" x1="250" y1="348" x2="490" y2="348"/>
  <rect class="bx" x="250" y="354" width="30" height="24" rx="2"/>
  <text class="t" x="265" y="370.5" text-anchor="middle" xml:space="preserve">0</text>
  <rect class="bx" x="280" y="354" width="30" height="24" rx="2"/>
  <text class="t" x="295" y="370.5" text-anchor="middle" xml:space="preserve">0</text>
  <rect class="bx" x="310" y="354" width="30" height="24" rx="2"/>
  <text class="t" x="325" y="370.5" text-anchor="middle" xml:space="preserve">0</text>
  <rect class="bx" x="340" y="354" width="30" height="24" rx="2"/>
  <text class="t" x="355" y="370.5" text-anchor="middle" xml:space="preserve">0</text>
  <rect class="bx" x="370" y="354" width="30" height="24" rx="2"/>
  <text class="t" x="385" y="370.5" text-anchor="middle" xml:space="preserve">0</text>
  <rect class="bxs" x="400" y="354" width="30" height="24" rx="2"/>
  <text class="tb" x="415" y="370.5" text-anchor="middle" xml:space="preserve">0</text>
  <rect class="bx" x="430" y="354" width="30" height="24" rx="2"/>
  <text class="t" x="445" y="370.5" text-anchor="middle" xml:space="preserve">1</text>
  <rect class="bx" x="460" y="354" width="30" height="24" rx="2"/>
  <text class="t" x="475" y="370.5" text-anchor="middle" xml:space="preserve">1</text>
  <text class="dim" x="238" y="371" text-anchor="end" xml:space="preserve">after</text>
  <text class="dim" x="521" y="346" text-anchor="middle" xml:space="preserve">C</text>
  <rect class="bxs" x="506" y="354" width="30" height="24" rx="2"/>
  <text class="tb" x="521" y="371" text-anchor="middle" xml:space="preserve">0</text>
  <text class="dimn" x="552" y="371" text-anchor="start" xml:space="preserve">carry is cleared</text>
  <text class="dimn" x="30" y="420" text-anchor="start" xml:space="preserve">and keeps only what the mask keeps, or adds what the mask names, xor flips it.</text>
  <text class="dimn" x="30" y="438" text-anchor="start" xml:space="preserve">None of the three touches a bit the mask leaves alone, and all three land carry on zero.</text>
</svg>
